<?xml version="1.0" encoding="UTF-8" standalone="no"?>
<!DOCTYPE svg PUBLIC "-//W3C//DTD SVG 20010904//EN"
              "http://www.w3.org/TR/2001/REC-SVG-20010904/DTD/svg10.dtd">

<svg xmlns="http://www.w3.org/2000/svg" width="1.533in" height="2in" viewBox="0 0 460 600">
      <path id="Selection"
        fill="darkgreen" stroke="black" stroke-width="1"
        d="M 83.00,219.00
           C 83.00,219.00 83.00,360.00 83.00,360.00
             82.99,364.99 83.09,368.48 80.47,372.99
             77.12,378.75 71.03,381.73 65.00,383.95
             51.39,388.94 37.97,389.20 24.00,385.62
             10.14,382.07 1.02,376.31 1.00,361.00
             1.00,361.00 1.00,86.00 1.00,86.00
             1.00,86.00 1.00,25.00 1.00,25.00
             1.25,6.85 21.93,1.07 37.00,1.00
             37.00,1.00 48.00,1.00 48.00,1.00
             59.13,1.13 76.86,5.94 81.64,17.00
             83.17,20.56 82.99,23.25 83.00,27.00
             83.00,27.00 83.00,155.00 83.00,155.00
             83.00,155.00 189.00,155.00 189.00,155.00
             189.00,155.00 189.00,28.00 189.00,28.00
             189.01,22.58 188.98,18.78 192.13,14.04
             195.53,8.93 201.39,6.30 207.00,4.34
             219.06,0.13 235.59,-0.30 248.00,2.65
             262.40,6.08 270.98,11.19 271.00,27.00
             271.00,27.00 271.00,219.00 271.00,219.00
             251.64,207.19 245.93,206.90 224.00,207.00
             218.77,207.03 216.08,207.39 211.00,208.73
             198.68,212.00 193.42,217.07 189.00,218.44
             186.87,219.11 184.23,219.00 182.00,219.00
             182.00,219.00 83.00,219.00 83.00,219.00 Z
           M 229.95,600.00
           C 219.71,600.00 210.27,597.88 201.61,593.64
             192.95,589.40 188.62,583.04 188.62,574.56
             188.62,574.56 188.62,237.48 188.62,237.48
             188.62,228.70 192.95,222.34 201.61,218.44
             210.27,214.52 219.71,212.56 229.95,212.56
             240.20,212.56 249.66,214.52 258.31,218.44
             266.97,222.34 271.30,228.70 271.30,237.48
             271.30,237.48 271.30,367.33 271.30,367.33
             271.30,367.33 376.77,367.33 376.77,367.33
             376.77,367.33 376.77,237.48 376.77,237.48
             376.77,228.70 381.09,222.34 389.75,218.44
             398.41,214.52 407.86,212.56 418.11,212.56
             428.36,212.56 437.81,214.52 446.47,218.44
             455.12,222.34 459.45,228.70 459.45,237.48
             459.45,237.48 459.45,574.56 459.45,574.56
             459.45,583.04 455.12,589.40 446.47,593.64
             437.81,597.88 428.36,600.00 418.11,600.00
             407.86,600.00 398.41,597.88 389.75,593.64
             381.09,589.40 376.77,583.04 376.77,574.56
             376.77,574.56 376.77,430.94 376.77,430.94
             376.77,430.94 271.30,430.94 271.30,430.94
             271.30,430.94 271.30,574.56 271.30,574.56
             271.30,583.04 266.97,589.40 258.31,593.64
             249.66,597.88 240.20,600.00 229.95,600.00 Z" />
</svg>